<?xml version="1.0" standalone="no"?>
<!DOCTYPE svg PUBLIC "-//W3C//DTD SVG 20010904//EN"
 "http://www.w3.org/TR/2001/REC-SVG-20010904/DTD/svg10.dtd">
<svg version="1.0" xmlns="http://www.w3.org/2000/svg"
 width="500.000000pt" height="500.000000pt" viewBox="0 0 500.000000 500.000000"
 preserveAspectRatio="xMidYMid meet">

<g transform="translate(0.000000,500.000000) scale(0.100000,-0.100000)"
fill="#000000" stroke="none">
<path d="M2315 4049 c-152 -19 -367 -84 -501 -152 -80 -41 -233 -145 -317
-215 -194 -163 -374 -431 -456 -678 -79 -238 -101 -503 -61 -739 77 -466 337
-847 747 -1097 389 -237 917 -279 1351 -107 393 155 717 474 872 859 80 198
110 356 110 584 0 286 -67 547 -198 771 -229 392 -601 661 -1042 755 -113 24
-383 34 -505 19z m422 -75 c240 -35 481 -140 683 -294 84 -65 218 -199 274
-275 l37 -50 -26 -7 c-56 -14 -92 -68 -120 -179 -33 -129 -101 -237 -188 -300
-55 -40 -62 -36 -27 14 27 39 60 137 60 179 0 52 -25 123 -54 156 -27 29 -41
35 -82 39 -104 9 -148 -55 -164 -237 -15 -163 -55 -255 -154 -348 -144 -136
-366 -176 -621 -112 -307 77 -496 3 -707 -278 -114 -151 -223 -222 -344 -222
-96 0 -215 54 -235 107 -19 50 -39 225 -39 337 0 642 400 1200 1011 1410 210
72 467 94 696 60z m888 -1120 c37 -24 50 -75 30 -117 -44 -93 -175 -62 -175
41 0 72 84 116 145 76z m-145 -209 c36 -19 54 -71 45 -130 -8 -58 -90 -223
-149 -303 -26 -35 -45 -66 -43 -68 10 -10 121 41 175 80 59 44 101 95 162 198
68 115 201 218 280 218 l37 0 7 -67 c17 -173 -33 -447 -119 -654 -45 -107 -52
-119 -130 -195 -104 -103 -216 -163 -317 -171 -36 -3 -73 -1 -82 4 -15 8 -12
13 21 35 65 43 151 136 169 183 15 41 15 46 0 70 -46 71 -103 69 -192 -5 -209
-174 -351 -228 -574 -216 -63 3 -142 13 -175 21 -88 24 -335 31 -405 13 -30
-8 -108 -47 -173 -86 -132 -79 -235 -123 -349 -146 -138 -29 -144 -27 -229 62
-41 42 -89 95 -106 117 -31 40 -133 200 -133 209 0 2 26 -3 57 -11 76 -20 206
-12 290 17 83 29 159 80 267 180 117 108 169 132 285 133 99 0 163 -12 316
-60 251 -78 436 -46 630 107 106 85 170 169 274 363 29 53 60 101 69 107 25
14 59 12 92 -5z"/>
<path d="M2336 3783 l-39 -4 7 -97 c9 -118 14 -142 32 -142 15 0 17 8 14 58
-1 31 0 32 35 32 46 0 85 36 85 80 0 38 -39 81 -72 78 -13 -1 -40 -3 -62 -5z
m86 -58 c15 -33 -4 -55 -48 -55 -32 0 -34 2 -34 34 0 24 5 36 18 39 38 10 53
6 64 -18z"/>
<path d="M2598 3681 c-32 -55 -58 -107 -58 -115 0 -25 25 -19 41 10 12 23 18
25 49 20 19 -3 43 -6 52 -6 10 0 19 -11 23 -30 6 -28 28 -40 39 -21 10 16 -58
236 -74 238 -10 2 -35 -32 -72 -96z m76 -13 c8 -38 4 -42 -29 -34 -25 6 -25 7
-10 36 20 38 31 38 39 -2z"/>
<path d="M2135 3714 c-9 -22 -19 -47 -23 -56 -6 -16 -12 -14 -54 13 -45 29
-68 31 -68 6 0 -7 20 -25 45 -40 25 -16 48 -33 51 -38 3 -5 -2 -32 -11 -60
-19 -55 -14 -89 9 -70 7 6 19 32 26 56 7 25 15 45 19 45 3 0 23 -11 43 -25 20
-14 44 -25 52 -25 31 0 15 29 -31 61 -27 18 -49 33 -51 34 -1 1 7 27 17 58 17
48 18 57 5 68 -11 9 -17 4 -29 -27z"/>
<path d="M2860 3724 c0 -3 8 -35 17 -70 16 -61 16 -67 0 -110 -9 -25 -14 -50
-11 -55 13 -21 32 -6 49 37 13 35 29 53 71 81 33 22 54 43 54 54 0 26 -15 24
-65 -11 l-44 -30 -16 55 c-13 42 -21 55 -36 55 -10 0 -19 -3 -19 -6z"/>
<path d="M1817 3594 c-32 -20 -57 -42 -57 -50 0 -16 93 -166 113 -183 9 -7 28
0 70 27 31 20 57 42 57 49 0 24 -21 23 -57 -2 -46 -31 -54 -31 -72 -3 -14 23
-13 24 43 62 13 8 17 18 13 30 -6 15 -11 15 -50 -8 -42 -25 -43 -25 -55 -6
-18 29 -16 34 28 59 38 21 50 43 32 55 -5 3 -34 -11 -65 -30z"/>
<path d="M3239 3511 c-61 -62 -20 -161 67 -161 64 0 109 70 84 131 -26 61
-104 77 -151 30z"/>
<path d="M1634 3457 c-2 -7 12 -48 31 -91 20 -43 35 -79 33 -81 -2 -2 -36 10
-77 26 -77 31 -106 34 -106 10 0 -18 207 -96 229 -88 14 6 14 12 -4 56 -61
155 -92 204 -106 168z"/>
<path d="M1418 3174 c-115 -62 -40 -241 92 -220 77 12 117 106 74 174 -36 55
-111 76 -166 46z m112 -53 c53 -38 29 -123 -35 -123 -87 0 -128 102 -55 139
28 14 53 10 90 -16z"/>
<path d="M1275 2890 c-11 -18 4 -28 77 -46 l73 -17 -95 -46 c-57 -28 -95 -52
-95 -61 0 -11 30 -22 105 -41 105 -25 134 -27 127 -5 -3 10 -28 19 -117 43
l-35 10 93 43 c64 30 92 48 92 60 0 14 -20 22 -92 40 -51 12 -100 24 -110 26
-9 3 -19 0 -23 -6z"/>
<path d="M1237 2561 c-38 -14 -15 -26 60 -31 l77 -5 -77 -65 c-105 -88 -101
-96 38 -91 111 3 134 9 120 31 -6 9 -28 11 -81 6 -41 -3 -74 -4 -74 -2 0 2 34
33 75 67 42 35 75 71 75 81 0 16 -10 18 -97 17 -54 0 -106 -4 -116 -8z"/>
<path d="M1380 2264 c-30 -8 -72 -20 -92 -25 -37 -10 -51 -32 -25 -41 6 -3 59
7 117 21 75 19 105 30 105 41 0 20 -38 22 -105 4z"/>
<path d="M3575 2091 c-64 -27 -82 -114 -32 -157 61 -53 157 -14 157 63 0 45
-14 69 -50 88 -32 17 -45 18 -75 6z"/>
</g>
</svg>
